<svg width="18" height="20" viewBox="0 0 18 20" fill="none" xmlns="http://www.w3.org/2000/svg">
<path d="M2.42402 9.75409C2.42402 14.0067 5.62731 17.2662 9.77002 17.2662C13.7556 17.2662 15.7608 14.6851 15.7608 11.8418V10.8242H9.95175V12.3877H14.1715C14.1961 13.9265 12.7916 15.7274 9.77002 15.7274C6.43429 15.7274 4.11807 13.2511 4.11807 9.75409C4.11807 6.38965 6.6191 3.86093 10.0565 3.86093C12.2957 3.86093 14.0667 4.40985 15.7084 5.55702L15.8131 5.47993V4.0182C14.5903 3.15782 12.5051 2.32211 10.0041 2.32211C5.75667 2.31902 2.42402 5.60636 2.42402 9.75409ZM0 9.75409C0 15.3882 4.16735 19.5853 9.76694 19.5853C14.8737 19.5853 18 16.3781 18 11.1881V8.52673H9.95175V10.0409H16.5431V11.4502C16.5431 15.5177 14.0175 18.0495 9.77002 18.0495C5.10678 18.0495 1.64168 14.4754 1.64168 9.75717C1.64168 5.16846 5.2885 1.5419 10.0041 1.5419C12.2433 1.5419 14.2762 2.09082 15.8131 3.15782V1.61592C14.3285 0.545834 12.3727 0 10.0041 0C4.34907 0 0 4.30191 0 9.75409Z" fill="#00B14F"/>
</svg>
